# xmcd CD database file
#
# Track frame offsets:
#	150
#	18200
#	44574
#	63322
#	86545
#	101754
#	118049
#	134823
#	152873
#	179247
#	197995
#	221218
#	236427
#	252722
#
# Disc length: 3592 seconds
#
# Revision: 0
# Processed by: cddbd v1.5.2PL0 Copyright (c) Steve Scherf et al.
# Submitted via: CDex 1.70beta2
#
DISCID=dc0e060e
DTITLE=Jamie Cullum - Play piano with
DYEAR=2002
DGENRE=Jazz
TTITLE0=But for now
TTITLE1=Frontin'
TTITLE2=Pointless Nostalgic
TTITLE3=Lover you should've come over
TTITLE4=These are the days
TTITLE5=The wind cries Mary
TTITLE6=You're nobody til somebody loves you
TTITLE7=But for now
TTITLE8=Frontin'
TTITLE9=Pointless Nostalgic
TTITLE10=Lover you should've come over
TTITLE11=These are the days
TTITLE12=The wind cries Mary
TTITLE13=You're nobody til somebody loves you
EXTD=YEAR: 2002
EXTT0=
EXTT1=
EXTT2=
EXTT3=
EXTT4=
EXTT5=
EXTT6=
EXTT7=
EXTT8=
EXTT9=
EXTT10=
EXTT11=
EXTT12=
EXTT13=
PLAYORDER=
